<svg xmlns="http://www.w3.org/2000/svg" viewBox="0 0 176.942 48.173"><defs><style>.a,.c{fill:#004267;}.b,.e{fill:#89d2f6;}.b,.c,.d{fill-rule:evenodd;}.d,.f{fill:#34719a;}.g{fill:#004266;}</style></defs><path class="a" d="M5.622,26.231H14.09v3.448H1.725V10.361H13.838V13.81H5.622v4.6h7.206v3.5H5.622Z"/><path class="a" d="M54.917,10.361c4.374,0,6.309,3.141,6.309,6.309a5.916,5.916,0,0,1-6.309,6.252H50.936v6.757h-3.9V10.361Zm-.2,9.141A2.544,2.544,0,0,0,57.3,16.67c0-1.4-.7-2.86-2.523-2.86H50.936V19.5Z"/><path class="a" d="M73.366,29.679l-4.6-6.925H67.45v6.925h-3.9V10.361h7.71c4.43,0,6.337,3.141,6.337,6.309a6,6,0,0,1-4.655,5.916l4.991,7.093ZM67.45,13.81v5.8h3.112c2.187,0,3.112-1.318,3.112-2.86a2.757,2.757,0,0,0-2.8-2.944Z"/><path class="a" d="M84.469,26.231h8.467v3.448H80.571V10.361H92.684V13.81H84.469v4.6h7.205v3.5H84.469Z"/><path class="a" d="M94.786,24.072h3.9c.028,1.374,1.374,2.523,3.168,2.523,1.738,0,2.888-.953,2.888-2.327,0-1.065-.785-1.822-2.439-2.327l-2.356-.673c-4.233-1.121-4.99-3.673-4.99-5.411,0-3.449,2.972-5.832,6.673-5.832,3.645,0,6.448,2.215,6.448,5.888h-3.9a2.4,2.4,0,0,0-2.635-2.439,2.462,2.462,0,0,0-2.664,2.3c0,.476.14,1.458,2.159,2.046l2.159.617c2.916.869,5.467,2.356,5.467,5.636,0,3.841-3.28,5.944-6.925,5.944C97.618,30.016,94.786,27.465,94.786,24.072Z"/><path class="a" d="M110.319,24.072h3.9c.028,1.374,1.374,2.523,3.169,2.523,1.738,0,2.887-.953,2.887-2.327,0-1.065-.785-1.822-2.439-2.327l-2.355-.673c-4.234-1.121-4.991-3.673-4.991-5.411,0-3.449,2.972-5.832,6.673-5.832,3.645,0,6.449,2.215,6.449,5.888h-3.9a2.4,2.4,0,0,0-2.636-2.439,2.462,2.462,0,0,0-2.664,2.3c0,.476.141,1.458,2.159,2.046l2.159.617c2.916.869,5.468,2.356,5.468,5.636,0,3.841-3.281,5.944-6.926,5.944C113.151,30.016,110.319,27.465,110.319,24.072Z"/><polygon class="b" points="60.157 45.291 51.451 45.291 32.967 27.045 37.499 22.395 60.157 45.291"/><polygon class="b" points="49.483 5.878 40.48 5.878 32.639 13.689 37.171 18.161 49.483 5.878"/><polygon class="c" points="35.217 20.188 22.771 32.642 13.32 32.642 25.842 20.188 35.217 20.188"/><polygon class="d" points="16.835 2.002 35.217 20.188 25.842 20.188 7.895 2.002 16.835 2.002"/><path class="e" d="M65.612,35.366l-.067.371H63.866L63.59,37.2h1.342l-.067.365H63.523l-.331,1.8h-.4l.741-3.995Z"/><path class="e" d="M66.182,38.324l-.551,1.037H65.2l2.138-3.995h.428l.644,3.995h-.423l-.171-1.037Zm1.586-.348L67.456,35.9l-1.1,2.076Z"/><path class="e" d="M69.668,38.312a.619.619,0,0,0,.692.731.948.948,0,0,0,.992-.679c.123-.533-.257-.725-.557-.8l-.454-.133c-.729-.221-.747-.679-.68-1.027a1.342,1.342,0,0,1,1.354-1.084A.853.853,0,0,1,71.94,36.4h-.4a.555.555,0,0,0-.594-.7.853.853,0,0,0-.876.707c-.049.215-.025.516.465.661l.435.128a.922.922,0,0,1,.791,1.188,1.439,1.439,0,0,1-1.465,1.038.94.94,0,0,1-1.029-1.107Z"/><path class="e" d="M75.653,35.366l-.068.371H74.452l-.674,3.624h-.4l.674-3.624H72.914l.068-.371Z"/><path class="e" d="M77.858,38.324l-.551,1.037h-.429l2.138-3.995h.429l.643,3.995h-.423l-.171-1.037Zm1.587-.348L79.132,35.9l-1.1,2.076Z"/><path class="e" d="M83.341,38.573l.6-3.207h.405L83.6,39.361h-.386L82.03,36.166l-.594,3.2h-.405l.742-3.995h.392Z"/><path class="e" d="M84.964,39.361l.741-3.995H87.1c1.023,0,1.47.87,1.256,2.007a2.182,2.182,0,0,1-2,1.988Zm1.452-.371c.809,0,1.36-.7,1.532-1.617s-.111-1.636-.919-1.636h-.987L85.43,38.99Z"/><path class="e" d="M91.237,38.324l-.551,1.037h-.429L92.4,35.366h.429l.643,3.995h-.423l-.171-1.037Zm1.587-.348L92.512,35.9l-1.1,2.076Z"/><path class="e" d="M97.308,38.729a2.053,2.053,0,0,1-1.5.69c-1.029,0-1.6-.771-1.36-2.046a2.256,2.256,0,0,1,2.132-2.053,1.324,1.324,0,0,1,1.225.69l-.349.243a1.036,1.036,0,0,0-.949-.556c-.8,0-1.458.632-1.654,1.676s.233,1.67,1.029,1.67a1.583,1.583,0,0,0,1.158-.551Z"/><path class="e" d="M101.161,38.729a2.052,2.052,0,0,1-1.494.69c-1.029,0-1.6-.771-1.36-2.046a2.255,2.255,0,0,1,2.132-2.053,1.327,1.327,0,0,1,1.225.69l-.349.243a1.038,1.038,0,0,0-.95-.556,1.8,1.8,0,0,0-1.654,1.676c-.2,1.049.233,1.67,1.029,1.67a1.583,1.583,0,0,0,1.158-.551Z"/><path class="e" d="M102.24,38.109l.514-2.749h.405l-.515,2.749a.7.7,0,0,0,.741.922,1.067,1.067,0,0,0,1.072-.922l.515-2.749h.4l-.514,2.749a1.556,1.556,0,0,1-1.556,1.31A1.01,1.01,0,0,1,102.24,38.109Z"/><path class="e" d="M106.644,37.813l-.282,1.548h-.4l.741-3.995h1.4c.79,0,.98.615.864,1.23a1.4,1.4,0,0,1-1.25,1.211l.711,1.554h-.472l-.68-1.548Zm1.023-.377a.923.923,0,0,0,.895-.84c.079-.418-.037-.859-.564-.859h-.962l-.318,1.7Z"/><path class="e" d="M110.093,38.324l-.551,1.037h-.429l2.138-3.995h.429l.643,3.995H111.9l-.171-1.037Zm1.587-.348-.313-2.076-1.1,2.076Z"/><path class="e" d="M116,35.366l-.068.371H114.8l-.674,3.624h-.4l.674-3.624H113.26l.068-.371Z"/><path class="e" d="M119.086,35.366l-.067.371h-1.7L117.04,37.2h1.489l-.068.365h-1.488l-.27,1.426h1.758l-.061.371h-2.162l.741-3.995Z"/><path class="e" d="M138.251,10.376l-.445,3.049h-4.623l-2.394,16.222h-2.863l2.394-16.222H125.7l.446-3.049Z"/><path class="e" d="M149.679,13.425h-7.063l-.775,5.2h6.195l-.469,3.1H141.4l-.727,4.867h7.3l-.446,3.049H137.359l2.84-19.271h9.926Z"/><path class="e" d="M150.054,24.081h2.839a2.472,2.472,0,0,0,2.558,2.881,3.132,3.132,0,0,0,3.121-2.713c.187-1.343-.657-2.126-1.924-2.573L154.723,21a4.368,4.368,0,0,1-3.332-5.23,6.6,6.6,0,0,1,6.336-5.734c2.957,0,4.975,2.182,4.459,5.79h-2.863c.234-1.6-.587-2.741-2.112-2.741a3.085,3.085,0,0,0-2.933,2.629c-.071.531-.094,1.678,1.666,2.237l1.83.616c2.44.839,4.13,2.461,3.684,5.538a6.642,6.642,0,0,1-6.5,5.873C151.509,29.982,149.561,27.353,150.054,24.081Z"/><path class="e" d="M176.147,10.376l-.446,3.049h-4.623l-2.393,16.222h-2.863l2.393-16.222h-4.622l.445-3.049Z"/><path class="f" d="M127.292,42.832c.369,0,.468.272.418.549a.613.613,0,0,1-.617.549h-.531l-.123.7h-.173l.317-1.8Zm-.032.162h-.533l-.136.774h.52a.429.429,0,0,0,.427-.387C127.572,43.187,127.509,42.994,127.26,42.994Z"/><path class="f" d="M127.815,43.737a1.147,1.147,0,0,1,1.076-.937.751.751,0,0,1,.745.937,1.136,1.136,0,0,1-1.072.929A.75.75,0,0,1,127.815,43.737Zm1.649,0a.617.617,0,0,0-.6-.774.944.944,0,0,0-.874.774.615.615,0,0,0,.6.767A.93.93,0,0,0,129.464,43.737Z"/><path class="f" d="M131.979,42.832h.183l-.927,1.8h-.162l-.138-1.253-.581,1.253h-.162l-.294-1.8h.184l.235,1.533.594-1.272h.149l.142,1.277Z"/><path class="f" d="M133.415,42.994h-.858l-.118.675h.749l-.026.162h-.751l-.113.641h.885l-.027.162H132.1l.317-1.8h1.028Z"/><path class="f" d="M134.48,42.832c.377,0,.474.272.424.549a.615.615,0,0,1-.61.547l.377.706h-.209l-.372-.706h-.3l-.122.706h-.173l.317-1.8Zm-.023.162h-.5l-.136.774h.456a.431.431,0,0,0,.458-.387C134.771,43.167,134.684,42.994,134.457,42.994Z"/><path class="f" d="M136.351,42.994h-.858l-.118.675h.749l-.026.162h-.751l-.113.641h.884l-.026.162h-1.057l.317-1.8h1.028Z"/><path class="f" d="M137.429,42.832c.51,0,.738.392.647.905a1,1,0,0,1-.963.9h-.683l.316-1.8Zm-.026.162h-.513l-.261,1.478h.512a.8.8,0,0,0,.762-.735C137.976,43.318,137.811,42.994,137.4,42.994Z"/><path class="f" d="M139.947,43.674a.385.385,0,0,1,.256.463.61.61,0,0,1-.6.5h-.72l.317-1.8h.654c.291,0,.45.164.4.445A.507.507,0,0,1,139.947,43.674Zm-.225.084h-.513l-.126.714h.521a.427.427,0,0,0,.429-.348A.3.3,0,0,0,139.722,43.758Zm.1-.764h-.481l-.107.612h.512a.345.345,0,0,0,.33-.316A.229.229,0,0,0,139.826,42.994Z"/><path class="f" d="M141.81,42.832h.207l-.856.957-.149.845h-.173l.15-.845-.511-.957h.2l.424.79Z"/><path class="f" d="M142.462,43.737a1.151,1.151,0,0,1,1.07-.937.717.717,0,0,1,.591.275l-.141.107a.6.6,0,0,0-.479-.219.943.943,0,0,0-.868.774.614.614,0,0,0,.6.767.857.857,0,0,0,.558-.22l.1.11a1.041,1.041,0,0,1-.686.272A.749.749,0,0,1,142.462,43.737Z"/><path class="f" d="M144.142,44.634l.317-1.8h.172l-.316,1.8Z"/><path class="f" d="M144.807,43.737a1.148,1.148,0,0,1,1.075-.937.755.755,0,0,1,.539.21l-.136.117a.625.625,0,0,0-.432-.164.946.946,0,0,0-.874.774.616.616,0,0,0,.6.767.759.759,0,0,0,.759-.589H145.8l.026-.155h.73a.989.989,0,0,1-1,.906A.75.75,0,0,1,144.807,43.737Z"/><path class="f" d="M148.122,42.832h.173l-.317,1.8H147.8l-.662-1.5-.262,1.5H146.7l.316-1.8h.181l.657,1.5Z"/><path class="f" d="M149.47,42.832c.369,0,.468.272.419.549a.615.615,0,0,1-.618.549h-.531l-.123.7h-.173l.317-1.8Zm-.031.162h-.534l-.136.774h.52a.429.429,0,0,0,.427-.387C149.75,43.187,149.687,42.994,149.439,42.994Z"/><path class="f" d="M149.993,43.737a1.147,1.147,0,0,1,1.076-.937.751.751,0,0,1,.745.937,1.136,1.136,0,0,1-1.072.929A.75.75,0,0,1,149.993,43.737Zm1.649,0a.617.617,0,0,0-.6-.774.944.944,0,0,0-.874.774.615.615,0,0,0,.6.767A.931.931,0,0,0,151.642,43.737Z"/><path class="f" d="M151.958,44.156h.17a.335.335,0,0,0,.372.348.479.479,0,0,0,.5-.359c.034-.2-.123-.29-.293-.335l-.233-.057c-.356-.089-.374-.306-.348-.45a.668.668,0,0,1,.662-.5.423.423,0,0,1,.473.49h-.17c.024-.2-.12-.327-.337-.327a.461.461,0,0,0-.456.34c-.015.083-.013.227.246.29l.233.058c.272.07.442.225.4.486a.684.684,0,0,1-.693.529A.466.466,0,0,1,151.958,44.156Z"/><path class="f" d="M154.8,42.832l-.026.162H154.2l-.29,1.64h-.173l.291-1.64h-.576l.029-.162Z"/><path class="f" d="M156.274,42.832c.51,0,.738.392.646.905a1,1,0,0,1-.963.9h-.683l.317-1.8Zm-.026.162h-.513l-.262,1.478h.513a.8.8,0,0,0,.761-.735C156.821,43.318,156.656,42.994,156.248,42.994Z"/><path class="f" d="M157.109,44.634l.317-1.8h.172l-.316,1.8Z"/><path class="f" d="M158.875,44.634l-.1-.478h-.832l-.264.478H157.5l1-1.8h.183l.369,1.8ZM158.033,44h.714l-.191-.942Z"/><path class="f" d="M159.275,43.737a1.15,1.15,0,0,1,1.076-.937.755.755,0,0,1,.539.21l-.136.117a.627.627,0,0,0-.432-.164.946.946,0,0,0-.874.774.616.616,0,0,0,.6.767.757.757,0,0,0,.758-.589h-.541l.026-.155h.73a.99.99,0,0,1-1,.906A.751.751,0,0,1,159.275,43.737Z"/><path class="f" d="M162.591,42.832h.172l-.316,1.8h-.178l-.662-1.5-.262,1.5h-.172l.316-1.8h.181l.657,1.5Z"/><path class="f" d="M162.939,43.737a1.147,1.147,0,0,1,1.075-.937.752.752,0,0,1,.746.937,1.137,1.137,0,0,1-1.073.929A.749.749,0,0,1,162.939,43.737Zm1.648,0a.617.617,0,0,0-.6-.774.944.944,0,0,0-.874.774.615.615,0,0,0,.6.767A.929.929,0,0,0,164.587,43.737Z"/><path class="f" d="M164.9,44.156h.17a.335.335,0,0,0,.372.348.478.478,0,0,0,.494-.359c.034-.2-.123-.29-.293-.335l-.232-.057c-.357-.089-.375-.306-.349-.45a.669.669,0,0,1,.662-.5c.306,0,.516.189.474.49h-.17c.023-.2-.121-.327-.338-.327a.46.46,0,0,0-.455.34c-.016.083-.013.227.246.29l.233.058c.272.07.442.225.4.486a.684.684,0,0,1-.693.529A.466.466,0,0,1,164.9,44.156Z"/><path class="f" d="M167.749,42.832l-.026.162h-.576l-.29,1.64h-.173l.291-1.64H166.4l.029-.162Z"/><path class="f" d="M167.689,44.634l.317-1.8h.172l-.316,1.8Z"/><path class="f" d="M168.354,43.737a1.15,1.15,0,0,1,1.07-.937.717.717,0,0,1,.591.275l-.141.107a.6.6,0,0,0-.479-.219.943.943,0,0,0-.869.774.615.615,0,0,0,.6.767.852.852,0,0,0,.557-.22l.1.11a1.04,1.04,0,0,1-.685.272A.749.749,0,0,1,168.354,43.737Z"/><path class="f" d="M169.994,44.156h.17a.335.335,0,0,0,.372.348.477.477,0,0,0,.494-.359c.034-.2-.123-.29-.293-.335l-.232-.057c-.356-.089-.375-.306-.349-.45a.669.669,0,0,1,.662-.5c.307,0,.516.189.474.49h-.17c.023-.2-.121-.327-.338-.327a.46.46,0,0,0-.455.34c-.016.083-.013.227.246.29l.233.058c.272.07.442.225.4.486a.684.684,0,0,1-.693.529A.466.466,0,0,1,169.994,44.156Z"/><path class="g" d="M121.262,37.245a2.516,2.516,0,0,1,2.251-2.112,1.4,1.4,0,0,1,1.324.858l-.646.462a.829.829,0,0,0-.8-.534A1.542,1.542,0,0,0,122,37.245c-.138.739.223,1.339.885,1.339a1.3,1.3,0,0,0,1.011-.54l.472.468a2.2,2.2,0,0,1-1.647.858A1.615,1.615,0,0,1,121.262,37.245Z"/><path class="g" d="M125.317,37.252a2.512,2.512,0,0,1,2.251-2.125,1.62,1.62,0,0,1,1.461,2.125,2.526,2.526,0,0,1-2.256,2.118A1.609,1.609,0,0,1,125.317,37.252Zm2.971,0c.138-.745-.217-1.339-.869-1.339a1.527,1.527,0,0,0-1.366,1.339c-.143.744.207,1.338.863,1.338A1.541,1.541,0,0,0,128.288,37.252Z"/><path class="g" d="M132.9,35.181l-1.881,4.135h-.662l-.333-4.135h.762l.149,2.791,1.2-2.791Z"/><path class="g" d="M133.757,35.181h.736l-.774,4.135h-.736Z"/><path class="g" d="M135.773,35.181h1.43c1.049,0,1.488.9,1.266,2.076a2.238,2.238,0,0,1-2.039,2.059H135Zm.794,3.4c.609,0,1.033-.612,1.165-1.321s-.058-1.338-.667-1.338h-.694l-.5,2.659Z"/><path class="g" d="M140.761,38.1h.736a.459.459,0,0,0,.493.546.616.616,0,0,0,.64-.486c.043-.228-.079-.39-.37-.5l-.419-.145a.938.938,0,0,1-.725-1.158,1.519,1.519,0,0,1,1.493-1.23.956.956,0,0,1,.98,1.26h-.736c.058-.294-.079-.522-.4-.522a.6.6,0,0,0-.594.474c-.021.1-.031.318.323.438l.387.132a1,1,0,0,1,.805,1.207,1.53,1.53,0,0,1-1.541,1.254A1.008,1.008,0,0,1,140.761,38.1Z"/><path class="g" d="M144.364,37.245a2.516,2.516,0,0,1,2.251-2.112,1.4,1.4,0,0,1,1.324.858l-.646.462a.829.829,0,0,0-.8-.534,1.542,1.542,0,0,0-1.393,1.326c-.137.739.223,1.339.885,1.339a1.3,1.3,0,0,0,1.011-.54l.472.468a2.2,2.2,0,0,1-1.647.858A1.615,1.615,0,0,1,144.364,37.245Z"/><path class="g" d="M149.578,37.834h-.249l-.276,1.482h-.736l.773-4.135h1.457c.836,0,1.07.672.943,1.35a1.5,1.5,0,0,1-1.123,1.261l.667,1.524h-.863Zm-.122-.673h.588a.687.687,0,0,0,.7-.612c.063-.33-.064-.63-.408-.63h-.646Z"/><path class="g" d="M154.54,38.578l-.138.738h-2.336l.774-4.135h2.287l-.137.738h-1.552l-.185.984h1.361l-.143.751H153.11l-.17.924Z"/><path class="g" d="M157.981,38.578l-.137.738h-2.336l.773-4.135h2.288l-.137.738H156.88l-.185.984h1.361l-.143.751h-1.362l-.169.924Z"/><path class="g" d="M162.445,35.181l-.773,4.135h-.662l-.842-2.593-.482,2.593h-.736l.773-4.135h.684l.821,2.563.481-2.563Z"/><path class="g" d="M163.734,35.181h.736l-.773,4.135h-.736Z"/><path class="g" d="M168.472,35.181l-.773,4.135h-.662l-.842-2.593-.482,2.593h-.736l.773-4.135h.683l.821,2.563.482-2.563Z"/><path class="g" d="M169.117,37.252a2.513,2.513,0,0,1,2.261-2.125,1.375,1.375,0,0,1,1.224.66l-.63.522a.859.859,0,0,0-.742-.408,1.576,1.576,0,0,0-1.377,1.351c-.143.738.233,1.374.869,1.374a1.131,1.131,0,0,0,1.075-.69.519.519,0,0,0,.042-.1h-1.032l.127-.679h1.837c-.286,1.531-1.138,2.215-2.187,2.215A1.611,1.611,0,0,1,169.117,37.252Z"/></svg>