<?xml version="1.0" encoding="UTF-8" standalone="no"?><!DOCTYPE svg PUBLIC "-//W3C//DTD SVG 1.1//EN" "http://www.w3.org/Graphics/SVG/1.1/DTD/svg11.dtd"><svg width="100%" height="100%" viewBox="0 0 177 52" version="1.1" xmlns="http://www.w3.org/2000/svg" xmlns:xlink="http://www.w3.org/1999/xlink" xml:space="preserve" xmlns:serif="http://www.serif.com/" style="fill-rule:evenodd;clip-rule:evenodd;stroke-linejoin:round;stroke-miterlimit:2;"><path d="M56.204,14.106c0,-2.208 -1.792,-4 -4,-4l-40,0c-2.208,0 -4,1.792 -4,4l0,24c0,2.208 1.792,4 4,4l40,0c2.208,0 4,-1.792 4,-4l0,-24Z" style="fill:#e0e3e8;"/><path d="M32.064,21.5l-2,9.25l-2.4,0l2,-9.25l2.4,0Zm10.06,6l1.26,-3.47l0.73,3.47l-1.99,0Zm2.67,3.28l2.22,0l-1.94,-9.25l-2,0c-0.439,0.004 -0.835,0.273 -1,0.68l-3.59,8.57l2.516,0l0.49,-1.38l3.01,0l0.294,1.38Zm-6.24,-3c0.01,-2.49 -3.35,-2.67 -3.35,-3.67c0,-0.33 0.32,-0.68 1,-0.77c0.809,-0.08 1.625,0.062 2.36,0.41l0.42,-2c-0.717,-0.268 -1.475,-0.407 -2.24,-0.41c-2.36,0 -4,1.26 -4,3.06c0,1.33 1.19,2.07 2.09,2.51c0.9,0.44 1.25,0.75 1.24,1.15c0,0.62 -0.74,0.9 -1.43,0.91c-0.851,0.011 -1.691,-0.195 -2.44,-0.6l-0.43,2c0.847,0.331 1.75,0.497 2.66,0.49c2.51,0 4.16,-1.24 4.17,-3.16m-9.91,-6.23l-3.88,9.25l-2.614,0l-1.91,-7.39c-0.034,-0.351 -0.251,-0.66 -0.57,-0.81c-0.751,-0.358 -1.544,-0.62 -2.36,-0.78l0.06,-0.27l4.07,0c0.548,-0.002 1.021,0.399 1.11,0.94l1,5.35l2.49,-6.29l2.604,0Z" style="fill:#2a2c6b;fill-rule:nonzero;"/><path d="M167.613,14.106c0,-2.208 -1.792,-4 -4,-4l-40,0c-2.208,0 -4,1.792 -4,4l0,24c0,2.208 1.792,4 4,4l40,0c2.208,0 4,-1.792 4,-4l0,-24Z" style="fill:#e0e3e8;"/><path d="M122.903,19.766l0.9,2.2l-1.81,0l0.55,-1.32l0.36,-0.88Z" style="fill:#2b6eb6;fill-rule:nonzero;"/><path d="M142.983,19.806l-1.583,0l0,1.24l1.58,0c0.03,0.005 0.061,0.007 0.091,0.007c0.334,0 0.609,-0.275 0.609,-0.609c0,-0.006 0,-0.012 0,-0.018c-0.001,-0.178 -0.078,-0.347 -0.212,-0.465c-0.134,-0.118 -0.311,-0.174 -0.488,-0.155l0.003,0Zm0,0l-1.583,0l0,1.24l1.58,0c0.03,0.005 0.061,0.007 0.091,0.007c0.334,0 0.609,-0.275 0.609,-0.609c0,-0.006 0,-0.012 0,-0.018c-0.001,-0.178 -0.078,-0.347 -0.212,-0.465c-0.134,-0.118 -0.311,-0.174 -0.488,-0.155l0.003,0Zm0,0l-1.583,0l0,1.24l1.58,0c0.03,0.005 0.061,0.007 0.091,0.007c0.334,0 0.609,-0.275 0.609,-0.609c0,-0.006 0,-0.012 0,-0.018c-0.001,-0.178 -0.078,-0.347 -0.212,-0.465c-0.134,-0.118 -0.311,-0.174 -0.488,-0.155l0.003,0Zm11.92,0.84l-0.29,-0.88l-0.36,0.88l-0.52,1.32l1.78,0l-0.61,-1.32Zm0,0l-0.29,-0.88l-0.36,0.88l-0.52,1.32l1.78,0l-0.61,-1.32Zm-11.92,-0.84l-1.583,0l0,1.24l1.58,0c0.03,0.005 0.061,0.007 0.091,0.007c0.334,0 0.609,-0.275 0.609,-0.609c0,-0.006 0,-0.012 0,-0.018c-0.001,-0.178 -0.078,-0.347 -0.212,-0.465c-0.134,-0.118 -0.311,-0.174 -0.488,-0.155l0.003,0Zm0,0l-1.583,0l0,1.24l1.58,0c0.03,0.005 0.061,0.007 0.091,0.007c0.334,0 0.609,-0.275 0.609,-0.609c0,-0.006 0,-0.012 0,-0.018c-0.001,-0.178 -0.078,-0.347 -0.212,-0.465c-0.134,-0.118 -0.311,-0.174 -0.488,-0.155l0.003,0Zm11.92,0.84l-0.29,-0.88l-0.36,0.88l-0.52,1.32l1.78,0l-0.61,-1.32Zm0,0l-0.29,-0.88l-0.36,0.88l-0.52,1.32l1.78,0l-0.61,-1.32Zm-11.92,-0.84l-1.583,0l0,1.24l1.58,0c0.03,0.005 0.061,0.007 0.091,0.007c0.334,0 0.609,-0.275 0.609,-0.609c0,-0.006 0,-0.012 0,-0.018c-0.001,-0.178 -0.078,-0.347 -0.212,-0.465c-0.134,-0.118 -0.311,-0.174 -0.488,-0.155l0.003,0Zm0,0l-1.583,0l0,1.24l1.58,0c0.03,0.005 0.061,0.007 0.091,0.007c0.334,0 0.609,-0.275 0.609,-0.609c0,-0.006 0,-0.012 0,-0.018c-0.001,-0.178 -0.078,-0.347 -0.212,-0.465c-0.134,-0.118 -0.311,-0.174 -0.488,-0.155l0.003,0Zm11.92,0.84l-0.29,-0.88l-0.36,0.88l-0.52,1.32l1.78,0l-0.61,-1.32Zm0,0l-0.29,-0.88l-0.36,0.88l-0.52,1.32l1.78,0l-0.61,-1.32Zm-11.92,-0.84l-1.583,0l0,1.24l1.58,0c0.03,0.005 0.061,0.007 0.091,0.007c0.334,0 0.609,-0.275 0.609,-0.609c0,-0.006 0,-0.012 0,-0.018c-0.001,-0.178 -0.078,-0.347 -0.212,-0.465c-0.134,-0.118 -0.311,-0.174 -0.488,-0.155l0.003,0Zm0,0l-1.583,0l0,1.24l1.58,0c0.03,0.005 0.061,0.007 0.091,0.007c0.334,0 0.609,-0.275 0.609,-0.609c0,-0.006 0,-0.012 0,-0.018c-0.001,-0.178 -0.078,-0.347 -0.212,-0.465c-0.134,-0.118 -0.311,-0.174 -0.488,-0.155l0.003,0Zm11.92,0.84l-0.29,-0.88l-0.36,0.88l-0.52,1.32l1.78,0l-0.61,-1.32Zm0,0l-0.29,-0.88l-0.36,0.88l-0.52,1.32l1.78,0l-0.61,-1.32Zm-11.92,-0.84l-1.583,0l0,1.24l1.58,0c0.03,0.005 0.061,0.007 0.091,0.007c0.334,0 0.609,-0.275 0.609,-0.609c0,-0.006 0,-0.012 0,-0.018c-0.001,-0.178 -0.078,-0.347 -0.212,-0.465c-0.134,-0.118 -0.311,-0.174 -0.488,-0.155l0.003,0Zm0,0l-1.583,0l0,1.24l1.58,0c0.03,0.005 0.061,0.007 0.091,0.007c0.334,0 0.609,-0.275 0.609,-0.609c0,-0.006 0,-0.012 0,-0.018c-0.001,-0.178 -0.078,-0.347 -0.212,-0.465c-0.134,-0.118 -0.311,-0.174 -0.488,-0.155l0.003,0Zm11.92,0.84l-0.29,-0.88l-0.36,0.88l-0.52,1.32l1.78,0l-0.61,-1.32Zm0,0l-0.29,-0.88l-0.36,0.88l-0.52,1.32l1.78,0l-0.61,-1.32Zm-11.92,-0.84l-1.583,0l0,1.24l1.58,0c0.03,0.005 0.061,0.007 0.091,0.007c0.334,0 0.609,-0.275 0.609,-0.609c0,-0.006 0,-0.012 0,-0.018c-0.001,-0.178 -0.078,-0.347 -0.212,-0.465c-0.134,-0.118 -0.311,-0.174 -0.488,-0.155l0.003,0Zm18.32,-2.46l0,1.66l-1.07,-1.66l-3.14,0l0,2.1l-1,-2.1l-5.34,0c-0.903,-0.026 -1.788,0.264 -2.5,0.82l0,-0.82l-17.64,0l-0.6,1.76l-0.6,-1.8l-4,0l0,2.1l-0.94,-2.1l-3.26,0l-1.6,3.8l0,4.4l2.28,0l0.47,-1.22l1.12,0l0.46,1.22l18.34,0l0,-1.46l1.16,1.46l4.81,0l0,-0.74c0.705,0.502 1.555,0.762 2.42,0.74l2.87,0l0.46,-1.22l1.12,0l0.49,1.22l4.9,0l0,-1.58l1,1.58l3.38,0l0,-8.16l-3.59,0Zm-36.58,6.9l-0.48,-1.14l-2.63,0l-0.48,1.18l-1.52,0l2.45,-5.68l1.78,0l2.42,5.64l-1.54,0Zm8.8,0l-1.323,0l0,-4.56l-0.26,0.86l-1.33,3.7l-1.22,0l-1.28,-3.7l-0.28,-0.86l0,4.56l-1.31,0l0,-5.64l2.21,0l1.1,3.26l0.18,0.62l0.18,-0.62l1.12,-3.26l2.21,0l0.003,5.64Zm5.59,-4.44l-3.17,0l0,1l3.09,0l0,1.2l-3.09,0l0,1l3.17,0l0,1.2l-4.5,0l0,-5.6l4.5,0l0,1.2Zm4.59,4.44l-1.68,-2l-0.62,0l0,2l-1.39,0l0,-5.64l3.09,0c0.076,-0.01 0.153,-0.015 0.23,-0.015c0.971,0 1.77,0.799 1.77,1.77c0,0.008 0,0.017 0,0.025c0.022,0.897 -0.649,1.673 -1.54,1.78l1.88,2.08l-1.74,0Zm3.39,0l-1.37,0l0,-5.64l1.37,0l0,5.64Zm3.5,0l-0.08,0c-0.045,0.002 -0.091,0.004 -0.136,0.004c-1.372,0 -2.5,-1.129 -2.5,-2.5c0,-0.095 0.005,-0.19 0.016,-0.284l0,-0.08c-0.007,-0.078 -0.011,-0.156 -0.011,-0.234c0,-1.4 1.152,-2.552 2.552,-2.552c0.06,0 0.119,0.002 0.179,0.006l1.59,0l0,1.22l-1.49,0c-0.023,-0.001 -0.046,-0.002 -0.069,-0.002c-0.768,0 -1.4,0.632 -1.4,1.4c0,0.054 0.003,0.108 0.009,0.162l0,0.08c-0.008,0.06 -0.012,0.121 -0.012,0.182c0,0.768 0.632,1.4 1.4,1.4c0.024,0 0.048,-0.001 0.072,-0.002l0.43,0l-0.55,1.2Zm5.78,0l-0.48,-1.14l-2.67,0l-0.48,1.18l-1.46,0l2.42,-5.68l1.8,0l2.41,5.64l-1.54,0Zm7.19,0l-1.6,0l-2.09,-3.14l-0.36,-0.62l0,3.8l-1.34,0l0,-5.68l1.66,0l2,3l0.38,0.64l0,-3.68l1.4,0l-0.05,5.68Zm-8.95,-4.48l-0.36,0.88l-0.52,1.32l1.78,0l-0.9,-2.2Zm-11.58,0l-1.633,0l0,1.24l1.58,0c0.03,0.005 0.061,0.007 0.091,0.007c0.334,0 0.609,-0.275 0.609,-0.609c0,-0.006 0,-0.012 0,-0.018c-0.024,-0.327 -0.3,-0.584 -0.628,-0.584c-0.024,0 -0.048,0.001 -0.072,0.004l0.053,-0.04Zm0,0l-1.633,0l0,1.24l1.58,0c0.03,0.005 0.061,0.007 0.091,0.007c0.334,0 0.609,-0.275 0.609,-0.609c0,-0.006 0,-0.012 0,-0.018c-0.024,-0.327 -0.3,-0.584 -0.628,-0.584c-0.024,0 -0.048,0.001 -0.072,0.004l0.053,-0.04Zm11.92,0.84l-0.34,-0.84l-0.36,0.88l-0.52,1.32l1.78,0l-0.56,-1.36Zm0,0l-0.34,-0.84l-0.36,0.88l-0.52,1.32l1.78,0l-0.56,-1.36Zm-11.97,-0.8l-1.583,0l0,1.24l1.58,0c0.03,0.005 0.061,0.007 0.091,0.007c0.334,0 0.609,-0.275 0.609,-0.609c0,-0.006 0,-0.012 0,-0.018c-0.001,-0.178 -0.078,-0.347 -0.212,-0.465c-0.134,-0.118 -0.311,-0.174 -0.488,-0.155l0.003,0Zm0,0l-1.583,0l0,1.24l1.58,0c0.03,0.005 0.061,0.007 0.091,0.007c0.334,0 0.609,-0.275 0.609,-0.609c0,-0.006 0,-0.012 0,-0.018c-0.001,-0.178 -0.078,-0.347 -0.212,-0.465c-0.134,-0.118 -0.311,-0.174 -0.488,-0.155l0.003,0Zm11.92,0.84l-0.29,-0.88l-0.36,0.88l-0.52,1.32l1.78,0l-0.61,-1.32Zm0,0l-0.29,-0.88l-0.36,0.88l-0.52,1.32l1.78,0l-0.61,-1.32Zm-11.92,-0.84l-1.583,0l0,1.24l1.58,0c0.03,0.005 0.061,0.007 0.091,0.007c0.334,0 0.609,-0.275 0.609,-0.609c0,-0.006 0,-0.012 0,-0.018c-0.001,-0.178 -0.078,-0.347 -0.212,-0.465c-0.134,-0.118 -0.311,-0.174 -0.488,-0.155l0.003,0Zm0,0l-1.583,0l0,1.24l1.58,0c0.03,0.005 0.061,0.007 0.091,0.007c0.334,0 0.609,-0.275 0.609,-0.609c0,-0.006 0,-0.012 0,-0.018c-0.001,-0.178 -0.078,-0.347 -0.212,-0.465c-0.134,-0.118 -0.311,-0.174 -0.488,-0.155l0.003,0Zm11.92,0.84l-0.29,-0.88l-0.36,0.88l-0.52,1.32l1.78,0l-0.61,-1.32Zm0,0l-0.29,-0.88l-0.36,0.88l-0.52,1.32l1.78,0l-0.61,-1.32Zm-11.92,-0.84l-1.583,0l0,1.24l1.58,0c0.03,0.005 0.061,0.007 0.091,0.007c0.334,0 0.609,-0.275 0.609,-0.609c0,-0.006 0,-0.012 0,-0.018c-0.001,-0.178 -0.078,-0.347 -0.212,-0.465c-0.134,-0.118 -0.311,-0.174 -0.488,-0.155l0.003,0Zm0,0l-1.583,0l0,1.24l1.58,0c0.03,0.005 0.061,0.007 0.091,0.007c0.334,0 0.609,-0.275 0.609,-0.609c0,-0.006 0,-0.012 0,-0.018c-0.001,-0.178 -0.078,-0.347 -0.212,-0.465c-0.134,-0.118 -0.311,-0.174 -0.488,-0.155l0.003,0Zm11.92,0.84l-0.29,-0.88l-0.36,0.88l-0.52,1.32l1.78,0l-0.61,-1.32Zm0,0l-0.29,-0.88l-0.36,0.88l-0.52,1.32l1.78,0l-0.61,-1.32Zm-11.92,-0.84l-1.583,0l0,1.24l1.58,0c0.03,0.005 0.061,0.007 0.091,0.007c0.334,0 0.609,-0.275 0.609,-0.609c0,-0.006 0,-0.012 0,-0.018c-0.001,-0.178 -0.078,-0.347 -0.212,-0.465c-0.134,-0.118 -0.311,-0.174 -0.488,-0.155l0.003,0Zm0,0l-1.583,0l0,1.24l1.58,0c0.03,0.005 0.061,0.007 0.091,0.007c0.334,0 0.609,-0.275 0.609,-0.609c0,-0.006 0,-0.012 0,-0.018c-0.001,-0.178 -0.078,-0.347 -0.212,-0.465c-0.134,-0.118 -0.311,-0.174 -0.488,-0.155l0.003,0Zm0,0l-1.583,0l0,1.24l1.58,0c0.03,0.005 0.061,0.007 0.091,0.007c0.334,0 0.609,-0.275 0.609,-0.609c0,-0.006 0,-0.012 0,-0.018c-0.001,-0.178 -0.078,-0.347 -0.212,-0.465c-0.134,-0.118 -0.311,-0.174 -0.488,-0.155l0.003,0Zm0,0l-1.583,0l0,1.24l1.58,0c0.03,0.005 0.061,0.007 0.091,0.007c0.334,0 0.609,-0.275 0.609,-0.609c0,-0.006 0,-0.012 0,-0.018c-0.001,-0.178 -0.078,-0.347 -0.212,-0.465c-0.134,-0.118 -0.311,-0.174 -0.488,-0.155l0.003,0Zm0,0l-1.583,0l0,1.24l1.58,0c0.03,0.005 0.061,0.007 0.091,0.007c0.334,0 0.609,-0.275 0.609,-0.609c0,-0.006 0,-0.012 0,-0.018c-0.001,-0.178 -0.078,-0.347 -0.212,-0.465c-0.134,-0.118 -0.311,-0.174 -0.488,-0.155l0.003,0Z" style="fill:#2b6eb6;fill-rule:nonzero;"/><path d="M143.923,30.466l-1.623,0l0,1.38l1.62,0c0.379,0 0.69,-0.311 0.69,-0.69c0,-0.379 -0.311,-0.69 -0.69,-0.69l0.003,0Zm0,0l-1.623,0l0,1.38l1.62,0c0.379,0 0.69,-0.311 0.69,-0.69c0,-0.379 -0.311,-0.69 -0.69,-0.69l0.003,0Zm0,0l-1.623,0l0,1.38l1.62,0c0.379,0 0.69,-0.311 0.69,-0.69c0,-0.379 -0.311,-0.69 -0.69,-0.69l0.003,0Zm5.75,0l-1.58,0l0,1.24l1.58,0c0.025,0.003 0.05,0.004 0.075,0.004c0.343,0 0.626,-0.282 0.626,-0.626c0,-0.178 -0.077,-0.348 -0.21,-0.467c-0.134,-0.119 -0.313,-0.174 -0.491,-0.151Zm0,0l-1.58,0l0,1.24l1.58,0c0.025,0.003 0.05,0.004 0.075,0.004c0.343,0 0.626,-0.282 0.626,-0.626c0,-0.178 -0.077,-0.348 -0.21,-0.467c-0.134,-0.119 -0.313,-0.174 -0.491,-0.151Zm-5.75,0l-1.623,0l0,1.38l1.62,0c0.379,0 0.69,-0.311 0.69,-0.69c0,-0.379 -0.311,-0.69 -0.69,-0.69l0.003,0Zm0,0l-1.623,0l0,1.38l1.62,0c0.379,0 0.69,-0.311 0.69,-0.69c0,-0.379 -0.311,-0.69 -0.69,-0.69l0.003,0Zm5.75,0l-1.58,0l0,1.24l1.58,0c0.025,0.003 0.05,0.004 0.075,0.004c0.343,0 0.626,-0.282 0.626,-0.626c0,-0.178 -0.077,-0.348 -0.21,-0.467c-0.134,-0.119 -0.313,-0.174 -0.491,-0.151Zm17.4,0l-2.46,0c-0.033,-0.007 -0.067,-0.01 -0.1,-0.01c-0.28,0 -0.51,0.23 -0.51,0.51c0,0.28 0.23,0.51 0.51,0.51c0.033,0 0.067,-0.003 0.1,-0.01l1.31,0c0.69,-0.071 1.352,0.309 1.64,0.94l0,-3.1l-0.49,1.16Zm-17.4,0l-1.58,0l0,1.24l1.58,0c0.025,0.003 0.05,0.004 0.075,0.004c0.343,0 0.626,-0.282 0.626,-0.626c0,-0.178 -0.077,-0.348 -0.21,-0.467c-0.134,-0.119 -0.313,-0.174 -0.491,-0.151Zm-5.75,0l-1.623,0l0,1.38l1.62,0c0.379,0 0.69,-0.311 0.69,-0.69c0,-0.379 -0.311,-0.69 -0.69,-0.69l0.003,0Zm20.757,-1.2l2.933,0l0,-1.26l-29.14,0l-0.86,1.2l-0.84,-1.2l-8.28,0l0,8.16l8.26,0l0.86,-1.22l0.84,1.22l5.05,0l0,-1.84l0.56,0c0.508,0.005 1.015,-0.069 1.5,-0.22l0,2.06l3.43,0l0,-1.46l1.16,1.46l15.62,0c0.642,0.012 1.274,-0.162 1.82,-0.5l0,-1.9c-0.279,0.745 -1.028,1.214 -1.82,1.14l-2.873,0l0,-1.2l2.89,0c0.033,0.007 0.067,0.01 0.1,0.01c0.28,0 0.51,-0.23 0.51,-0.51c0,-0.28 -0.23,-0.51 -0.51,-0.51c-0.033,0 -0.067,0.003 -0.1,0.01l-1.29,0c-0.064,0.008 -0.128,0.012 -0.192,0.012c-0.862,0 -1.571,-0.709 -1.571,-1.571c0,-0.034 0.001,-0.067 0.003,-0.101c0,-0.017 -0.001,-0.034 -0.001,-0.05c0,-0.956 0.786,-1.741 1.741,-1.741c0.067,0 0.134,0.003 0.2,0.011Zm-30.357,1.2l-3.17,0l0,1l3.11,0l0,1.18l-3.11,0l0,1l3.17,0l0,1.2l-4.53,0l0,-5.58l4.53,0l0,1.2Zm4.65,4.44l-1.36,-1.8l-1.41,1.8l-1.59,0l2.2,-2.8l-2.27,-2.82l1.7,0l1.37,1.76l1.38,-1.78l1.66,0l-2.24,2.84l2.28,2.84l-1.72,-0.04Zm5.03,-1.86l-1.73,0l0,1.86l-1.34,0l0,-5.64l3.11,0c0.064,-0.007 0.128,-0.01 0.193,-0.01c0.992,0 1.809,0.816 1.809,1.809c0,0.027 -0.001,0.054 -0.002,0.081c0.001,0.02 0.001,0.041 0.001,0.061c0,1.014 -0.835,1.849 -1.849,1.849c-0.064,0 -0.128,-0.003 -0.192,-0.01Zm6.36,1.86l-1.68,-2l-0.62,0l0,2l-1.33,0l0,-5.64l3.06,0c0.07,-0.008 0.14,-0.012 0.21,-0.012c0.983,0 1.792,0.809 1.792,1.792c0,0.904 -0.684,1.674 -1.582,1.78l1.89,2.08l-1.74,0Zm6.58,-4.44l-3.143,0l0,1l3.09,0l0,1.18l-3.09,0l0,1l3.17,0l0,1.2l-4.55,0l0,-5.58l4.55,0l-0.027,1.2Zm3.67,4.44l-2.92,0l0,-1.2l2.92,0c0.033,0.007 0.067,0.01 0.1,0.01c0.28,0 0.51,-0.23 0.51,-0.51c0,-0.28 -0.23,-0.51 -0.51,-0.51c-0.033,0 -0.067,0.003 -0.1,0.01l-1.32,0c-0.064,0.008 -0.128,0.012 -0.192,0.012c-0.862,0 -1.571,-0.709 -1.571,-1.571c0,-0.034 0.001,-0.067 0.003,-0.101c0,-0.01 0,-0.02 0,-0.03c0,-0.956 0.786,-1.741 1.741,-1.741c0.066,0 0.133,0.003 0.199,0.011l2.93,0l-0.54,1.2l-2.43,0c-0.033,-0.007 -0.067,-0.01 -0.1,-0.01c-0.28,0 -0.51,0.23 -0.51,0.51c0,0.28 0.23,0.51 0.51,0.51c0.033,0 0.067,-0.003 0.1,-0.01l1.31,0c0.07,-0.01 0.141,-0.015 0.212,-0.015c0.851,0 1.55,0.7 1.55,1.55c0,0.029 0,0.057 -0.002,0.085c0.001,0.019 0.001,0.037 0.001,0.056c0,0.96 -0.79,1.75 -1.75,1.75c-0.047,0 -0.094,-0.002 -0.141,-0.006Zm-10.94,-4.44l-1.58,0l0,1.24l1.58,0c0.025,0.003 0.05,0.004 0.075,0.004c0.343,0 0.626,-0.282 0.626,-0.626c0,-0.178 -0.077,-0.348 -0.21,-0.467c-0.134,-0.119 -0.313,-0.174 -0.491,-0.151Zm-5.75,0l-1.623,0l0,1.38l1.62,0c0.379,0 0.69,-0.311 0.69,-0.69c0,-0.379 -0.311,-0.69 -0.69,-0.69l0.003,0Zm0,0l-1.623,0l0,1.38l1.62,0c0.379,0 0.69,-0.311 0.69,-0.69c0,-0.379 -0.311,-0.69 -0.69,-0.69l0.003,0Zm5.75,0l-1.58,0l0,1.24l1.58,0c0.025,0.003 0.05,0.004 0.075,0.004c0.343,0 0.626,-0.282 0.626,-0.626c0,-0.178 -0.077,-0.348 -0.21,-0.467c-0.134,-0.119 -0.313,-0.174 -0.491,-0.151Zm0,0l-1.58,0l0,1.24l1.58,0c0.025,0.003 0.05,0.004 0.075,0.004c0.343,0 0.626,-0.282 0.626,-0.626c0,-0.178 -0.077,-0.348 -0.21,-0.467c-0.134,-0.119 -0.313,-0.174 -0.491,-0.151Zm-5.75,0l-1.623,0l0,1.38l1.62,0c0.379,0 0.69,-0.311 0.69,-0.69c0,-0.379 -0.311,-0.69 -0.69,-0.69l0.003,0Zm0,0l-1.623,0l0,1.38l1.62,0c0.379,0 0.69,-0.311 0.69,-0.69c0,-0.379 -0.311,-0.69 -0.69,-0.69l0.003,0Zm5.75,0l-1.58,0l0,1.24l1.58,0c0.025,0.003 0.05,0.004 0.075,0.004c0.343,0 0.626,-0.282 0.626,-0.626c0,-0.178 -0.077,-0.348 -0.21,-0.467c-0.134,-0.119 -0.313,-0.174 -0.491,-0.151Zm0,0l-1.58,0l0,1.24l1.58,0c0.025,0.003 0.05,0.004 0.075,0.004c0.343,0 0.626,-0.282 0.626,-0.626c0,-0.178 -0.077,-0.348 -0.21,-0.467c-0.134,-0.119 -0.313,-0.174 -0.491,-0.151Zm-5.75,0l-1.623,0l0,1.38l1.62,0c0.379,0 0.69,-0.311 0.69,-0.69c0,-0.379 -0.311,-0.69 -0.69,-0.69l0.003,0Z" style="fill:#2b6eb6;fill-rule:nonzero;"/><path d="M111.909,14.106c0,-2.208 -1.792,-4 -4,-4l-40,0c-2.208,0 -4,1.792 -4,4l0,24c0,2.208 1.792,4 4,4l40,0c2.208,0 4,-1.792 4,-4l0,-24Z" style="fill:#e0e3e8;"/><g opacity="0"><rect x="68.559" y="13.306" width="38.71" height="25.6" style="fill:#fff;"/></g><rect x="82.809" y="17.766" width="10.21" height="16.68" style="fill:#f26324;"/><path d="M83.909,26.106c-0.017,-3.244 1.459,-6.323 4,-8.34c-1.87,-1.47 -4.18,-2.27 -6.559,-2.27c-5.82,0 -10.61,4.79 -10.61,10.61c0,5.82 4.79,10.61 10.61,10.61c2.379,0 4.689,-0.8 6.559,-2.27c-2.541,-2.017 -4.017,-5.096 -4,-8.34Z" style="fill:#e92328;fill-rule:nonzero;"/><path d="M104.049,32.676l0,-0.34l0.15,0l0,-0.07l-0.35,0l0,0.07l0.14,0l0,0.34l0.06,0Zm0.68,0l0,-0.41l-0.1,0l-0.12,0.29l-0.13,-0.29l-0.1,0l0,0.41l0.07,0l0,-0.31l0.12,0.27l0.08,0l0.11,-0.27l0,0.31l0.07,0Z" style="fill:#f59e21;fill-rule:nonzero;"/><path d="M105.069,26.106c-0.004,5.818 -4.792,10.603 -10.61,10.603c-2.375,0 -4.682,-0.797 -6.55,-2.263c4.569,-3.598 5.372,-10.316 1.78,-14.89c-0.519,-0.666 -1.117,-1.267 -1.78,-1.79c1.868,-1.466 4.175,-2.263 6.55,-2.263c5.818,0 10.606,4.785 10.61,10.603Z" style="fill:#f59e21;fill-rule:nonzero;"/></svg>